<svg xmlns="http://www.w3.org/2000/svg" viewBox="0 0 24 24" fill="#1DB954">
  <circle cx="12" cy="12" r="11" fill="#1DB954"/>
  <path d="M17.9 10.9C14.7 9 9.35 8.8 6.3 9.75c-.5.15-1-.15-1.15-.6-.15-.5.15-1 .6-1.15 3.55-1.05 9.4-.85 13.1 1.35.45.25.6.85.35 1.3-.25.35-.85.5-1.3.25zm-.1 2.8c-.25.35-.7.5-1.05.25-2.7-1.65-6.8-2.15-9.95-1.15-.4.1-.85-.1-.95-.5-.1-.4.1-.85.5-.95 3.65-1.1 8.15-.55 11.25 1.35.3.15.45.65.2 1zM7.2 16c-.3.1-.6 0-.7-.3-.1-.3 0-.6.3-.7 2.35-.7 5.7-.5 7.9.7.25.15.35.45.2.7-.15.25-.45.35-.7.2-1.9-1-4.9-1.2-7-.6z" fill="white"/>
</svg>
